<svg xmlns="http://www.w3.org/2000/svg" viewBox="16 160 600 600" width="600" height="600" fill="none" stroke-linecap="round" stroke-linejoin="round">
<title>Fortune cookie — frame 2 of 8</title>
<defs><pattern id="f2h" width="6" height="6" patternUnits="userSpaceOnUse" patternTransform="rotate(45)"><line x1="0" y1="0" x2="0" y2="6" stroke="#C38B34" stroke-width="1.1" stroke-opacity="0.75"></line></pattern><clipPath id="f2c"><path d="M323.8 295C329.1 294.4 337.2 293.9 343 294.3C349.7 294.8 358.5 296.5 365 297.9C370.8 299.2 378.5 301.3 384 303.3C388.4 304.9 394 307.7 398 310.1C403.2 313.2 410.2 318.2 415 322.1C418.9 325.2 423.7 329.9 427 333.6C431.9 339.3 440.1 348.7 444.6 356C448.6 362.4 452.7 371.8 454.9 379C456.9 385.7 458.3 397.7 458.5 402C458.6 403.1 457.2 404.3 456.4 405C454.5 406.7 449.6 410.8 447 412.3C445.4 413.3 442.7 413.4 441 414.3C439 415.4 437.1 418 435 418.7C432 419.7 426.6 420.3 423 420.5C416.7 420.8 402 420.8 397 420.5C395.7 420.4 394.3 419 393 418.7C387.7 417.6 372.2 415.4 365 413.7C360.4 412.6 354.3 410.6 350 408.7C343.5 405.8 331.3 398.4 326 396.5C323.7 395.7 320.4 397.5 318 397.5C315.9 397.5 313.1 396.5 311 396.7C307.7 397 301.5 399.5 298 399.1C295.3 398.9 292.6 395.4 290 394.7C287.1 393.9 282.8 394.9 280 394.1C277.7 393.5 275.3 390.9 273 390.1C271 389.4 268 390 266 389.5C263.5 388.8 258 383.9 257.7 386C257.5 388.1 261.7 397.6 264.5 402C267.6 406.8 273.9 413.4 277 416.3C278.5 417.7 281 419.2 283 419.7C286 420.5 292 420 295 420.8C297.1 421.4 299.5 423.3 300.9 425C302.1 426.5 304.2 429.4 303.1 431C301.5 433.4 293.3 436.5 291 439.1C289.4 441 288.9 444.6 289.3 447C290.2 452 294.3 464.3 296.1 469C296.9 471 299.1 473 299.9 475C302.1 480.5 307.6 496.2 309.5 502C310.3 504.3 311.4 507.5 311.5 510C311.6 512.7 309.8 516.3 309.9 519C310 521.2 312 523.8 312.3 526C312.6 527.8 312.1 530.2 311.9 532C311.1 538 309.5 555.9 307.3 562C306.2 565.1 302 567.8 299 568.9C295.6 570.1 290.6 570.1 287 569.5C281 568.5 269.8 565.8 263 562.9C257.4 560.5 250.8 555.6 246 551.9C240.3 547.5 233 541.2 228.1 536C222.5 530.1 215.3 521 211.1 515C208.2 510.8 204.9 504.7 202.9 500C199.9 493.2 195.3 481 193.3 474C192 469.3 190.8 462.9 190.8 458C190.9 453.7 193.1 447.2 193.5 444C193.7 442.5 192.9 440.5 193.3 439C194.5 434.2 197.7 422 200.5 415C203.7 406.9 210 393.9 213.1 389C214.2 387.2 217.6 386.9 219 385.4C221.6 382.6 226.5 374.3 229 372.1C230.1 371.1 232.6 372.6 234 372.1C236.2 371.2 240.9 368.7 242.1 367C243 365.8 241 363.5 241.3 362C241.7 359.8 243.2 356.2 244.5 354C247.7 348.3 255.2 334.5 260.7 328C265 323.1 272.7 318.7 278 315.1C282.3 312.2 289.7 307.7 293 306.1C294.4 305.4 296.6 306 298 305.3C299.8 304.4 302 301.8 304 300.7C306 299.6 308.8 298.5 311 297.9C314.3 297 319.9 295.4 323.8 295Z"></path></clipPath></defs>
<g id="shadow"><path d="M323.8 295C329.1 294.4 337.2 293.9 343 294.3C349.7 294.8 358.5 296.5 365 297.9C370.8 299.2 378.5 301.3 384 303.3C388.4 304.9 394 307.7 398 310.1C403.2 313.2 410.2 318.2 415 322.1C418.9 325.2 423.7 329.9 427 333.6C431.9 339.3 440.1 348.7 444.6 356C448.6 362.4 452.7 371.8 454.9 379C456.9 385.7 458.3 397.7 458.5 402C458.6 403.1 457.2 404.3 456.4 405C454.5 406.7 449.6 410.8 447 412.3C445.4 413.3 442.7 413.4 441 414.3C439 415.4 437.1 418 435 418.7C432 419.7 426.6 420.3 423 420.5C416.7 420.8 402 420.8 397 420.5C395.7 420.4 394.3 419 393 418.7C387.7 417.6 372.2 415.4 365 413.7C360.4 412.6 354.3 410.6 350 408.7C343.5 405.8 331.3 398.4 326 396.5C323.7 395.7 320.4 397.5 318 397.5C315.9 397.5 313.1 396.5 311 396.7C307.7 397 301.5 399.5 298 399.1C295.3 398.9 292.6 395.4 290 394.7C287.1 393.9 282.8 394.9 280 394.1C277.7 393.5 275.3 390.9 273 390.1C271 389.4 268 390 266 389.5C263.5 388.8 258 383.9 257.7 386C257.5 388.1 261.7 397.6 264.5 402C267.6 406.8 273.9 413.4 277 416.3C278.5 417.7 281 419.2 283 419.7C286 420.5 292 420 295 420.8C297.1 421.4 299.5 423.3 300.9 425C302.1 426.5 304.2 429.4 303.1 431C301.5 433.4 293.3 436.5 291 439.1C289.4 441 288.9 444.6 289.3 447C290.2 452 294.3 464.3 296.1 469C296.9 471 299.1 473 299.9 475C302.1 480.5 307.6 496.2 309.5 502C310.3 504.3 311.4 507.5 311.5 510C311.6 512.7 309.8 516.3 309.9 519C310 521.2 312 523.8 312.3 526C312.6 527.8 312.1 530.2 311.9 532C311.1 538 309.5 555.9 307.3 562C306.2 565.1 302 567.8 299 568.9C295.6 570.1 290.6 570.1 287 569.5C281 568.5 269.8 565.8 263 562.9C257.4 560.5 250.8 555.6 246 551.9C240.3 547.5 233 541.2 228.1 536C222.5 530.1 215.3 521 211.1 515C208.2 510.8 204.9 504.7 202.9 500C199.9 493.2 195.3 481 193.3 474C192 469.3 190.8 462.9 190.8 458C190.9 453.7 193.1 447.2 193.5 444C193.7 442.5 192.9 440.5 193.3 439C194.5 434.2 197.7 422 200.5 415C203.7 406.9 210 393.9 213.1 389C214.2 387.2 217.6 386.9 219 385.4C221.6 382.6 226.5 374.3 229 372.1C230.1 371.1 232.6 372.6 234 372.1C236.2 371.2 240.9 368.7 242.1 367C243 365.8 241 363.5 241.3 362C241.7 359.8 243.2 356.2 244.5 354C247.7 348.3 255.2 334.5 260.7 328C265 323.1 272.7 318.7 278 315.1C282.3 312.2 289.7 307.7 293 306.1C294.4 305.4 296.6 306 298 305.3C299.8 304.4 302 301.8 304 300.7C306 299.6 308.8 298.5 311 297.9C314.3 297 319.9 295.4 323.8 295Z" transform="translate(-16 12)" fill="url(#f2h)"></path></g>
<g id="cookie"><path d="M323.8 295C329.1 294.4 337.2 293.9 343 294.3C349.7 294.8 358.5 296.5 365 297.9C370.8 299.2 378.5 301.3 384 303.3C388.4 304.9 394 307.7 398 310.1C403.2 313.2 410.2 318.2 415 322.1C418.9 325.2 423.7 329.9 427 333.6C431.9 339.3 440.1 348.7 444.6 356C448.6 362.4 452.7 371.8 454.9 379C456.9 385.7 458.3 397.7 458.5 402C458.6 403.1 457.2 404.3 456.4 405C454.5 406.7 449.6 410.8 447 412.3C445.4 413.3 442.7 413.4 441 414.3C439 415.4 437.1 418 435 418.7C432 419.7 426.6 420.3 423 420.5C416.7 420.8 402 420.8 397 420.5C395.7 420.4 394.3 419 393 418.7C387.7 417.6 372.2 415.4 365 413.7C360.4 412.6 354.3 410.6 350 408.7C343.5 405.8 331.3 398.4 326 396.5C323.7 395.7 320.4 397.5 318 397.5C315.9 397.5 313.1 396.5 311 396.7C307.7 397 301.5 399.5 298 399.1C295.3 398.9 292.6 395.4 290 394.7C287.1 393.9 282.8 394.9 280 394.1C277.7 393.5 275.3 390.9 273 390.1C271 389.4 268 390 266 389.5C263.5 388.8 258 383.9 257.7 386C257.5 388.1 261.7 397.6 264.5 402C267.6 406.8 273.9 413.4 277 416.3C278.5 417.7 281 419.2 283 419.7C286 420.5 292 420 295 420.8C297.1 421.4 299.5 423.3 300.9 425C302.1 426.5 304.2 429.4 303.1 431C301.5 433.4 293.3 436.5 291 439.1C289.4 441 288.9 444.6 289.3 447C290.2 452 294.3 464.3 296.1 469C296.9 471 299.1 473 299.9 475C302.1 480.5 307.6 496.2 309.5 502C310.3 504.3 311.4 507.5 311.5 510C311.6 512.7 309.8 516.3 309.9 519C310 521.2 312 523.8 312.3 526C312.6 527.8 312.1 530.2 311.9 532C311.1 538 309.5 555.9 307.3 562C306.2 565.1 302 567.8 299 568.9C295.6 570.1 290.6 570.1 287 569.5C281 568.5 269.8 565.8 263 562.9C257.4 560.5 250.8 555.6 246 551.9C240.3 547.5 233 541.2 228.1 536C222.5 530.1 215.3 521 211.1 515C208.2 510.8 204.9 504.7 202.9 500C199.9 493.2 195.3 481 193.3 474C192 469.3 190.8 462.9 190.8 458C190.9 453.7 193.1 447.2 193.5 444C193.7 442.5 192.9 440.5 193.3 439C194.5 434.2 197.7 422 200.5 415C203.7 406.9 210 393.9 213.1 389C214.2 387.2 217.6 386.9 219 385.4C221.6 382.6 226.5 374.3 229 372.1C230.1 371.1 232.6 372.6 234 372.1C236.2 371.2 240.9 368.7 242.1 367C243 365.8 241 363.5 241.3 362C241.7 359.8 243.2 356.2 244.5 354C247.7 348.3 255.2 334.5 260.7 328C265 323.1 272.7 318.7 278 315.1C282.3 312.2 289.7 307.7 293 306.1C294.4 305.4 296.6 306 298 305.3C299.8 304.4 302 301.8 304 300.7C306 299.6 308.8 298.5 311 297.9C314.3 297 319.9 295.4 323.8 295Z" fill="#FBF1DD"></path><g clip-path="url(#f2c)"><path d="M154 288C155.3 287.7 158.1 290.1 160 290.4C161.8 290.8 164.2 290.7 166 290.3C168.2 289.9 171.1 287.6 173 287.5C174.6 287.5 177.6 289 177.6 290C177.6 291 174.7 293.1 173 293.5C171.1 293.9 168.1 292.3 166 292.6C163.3 292.8 159.3 295.2 157 295.1C155.3 295.1 152.6 293.2 152.1 292C151.6 290.8 152.7 288.3 154 288ZM306.8 302C307.6 301.3 309.6 301.3 310.5 302C311.6 302.8 313.4 305.4 313.5 307C313.6 308.5 312.1 310.5 311 311.5C310.1 312.4 308.2 313.7 307 313.2C305.8 312.6 303.6 309.9 303.6 308C303.5 306.1 305.6 303 306.8 302ZM284.9 314C286 313.9 286.9 315.7 288 316C289.6 316.5 294.7 315.8 294.7 317C294.8 318.2 290.2 321.2 288.3 323C286.7 324.5 284.7 327.2 283 328.1C281.7 328.7 279.4 327.9 278 328.4C276.6 328.8 274.6 329.8 273.7 331C272 333.3 268.9 339.5 268 342C267.5 343.1 266.7 345.4 267.8 346C269.1 346.7 273.7 345.5 276 346.3C278.1 347 280 349.8 282 350.9C284.7 352.3 289.5 353.2 292.3 355C294.8 356.6 296.9 360.1 299.2 362C301.7 364 306.3 366.3 308.1 368C309 368.9 309.8 370.7 309.9 372C310.2 373.8 310.2 377 309.4 379C308.3 381.8 304.3 386.2 303 389C302.2 390.9 303.9 395.2 301.9 396C299.9 396.8 294.3 394.1 291 393.6C287.7 393.1 283.2 393.6 280 392.8C274.7 391.4 262.9 385.8 259 385.4C257.5 385.2 256.3 388.5 256.7 390C258 394.6 265.8 408.8 266.8 413C267.1 414.2 264.1 415.7 263 415C260.2 413.1 252.4 405 250 401.6C248.8 400 249.8 396.2 248.3 395C246.8 393.8 241.9 395.2 241 394.4C240.1 393.5 243.8 390.3 243.1 390C242.4 389.7 239 393 237 392.8C234.6 392.6 231.2 389.1 229 388.6C227.4 388.3 223 388.6 223.8 390C225.3 392.7 233.8 400.8 238.3 405C241.9 408.4 247.2 412.5 251 415.4C253.9 417.6 257.7 420.7 261 422.4C264.7 424.2 271.5 425.7 274 427C275 427.5 276.3 428.9 276.2 430C275.3 437 270.1 460.2 269.1 469C268.6 473.2 270.4 478.8 270 483C269.5 488.7 266.1 496.9 265.8 503C265.6 508.7 268.4 517 268.4 522C268.4 525.4 267.1 529.8 266 533C264.7 536.7 262.4 542.3 260.4 545C259.2 546.7 254.5 547.5 254.5 549C254.4 550.5 258 553.2 260 554.3C261.9 555.2 265 554.5 267 555.4C269.5 556.4 272.3 559.5 275 560.6C279.2 562.4 290.3 564.7 292.5 566C293.8 566.7 289.5 568.1 288 568.1C285.1 568.2 278.8 567.4 275 566.6C271.6 565.9 267 564.8 264 563.1C258.5 560 247.7 552.3 242 548C238.1 545 233.1 540.6 229.7 537C225.1 532.2 218.3 524 214.4 519C211.7 515.6 208.2 510.9 206.3 507C202.8 499.8 196.2 484.2 193.7 476C192 470.8 191 463.5 191 458C191.1 451.6 192.4 443.2 193.8 437C195.4 429.9 198.3 420.7 201.1 414C204.2 406.5 210.3 394.6 213.4 390C214.7 388.2 218.5 388.2 220 386.6C222.6 383.8 226.5 375.7 229 373.3C230.3 372.1 233.3 373 235 372.2C237 371.3 240.2 370 241.2 368C242.7 365.1 242.4 358.6 244.1 355C247.3 348.4 254.5 334.7 260 328.4C264 323.8 272.8 319.6 277 317.2C279.2 316 283.1 314.2 284.9 314ZM317.6 386C319 385.1 321.8 385.9 323 387C324.3 388.1 326.6 391.6 325.6 393C324.6 394.4 319.3 395.3 317 395.5C315.3 395.6 311.4 395.6 311.5 394C311.6 392.4 315.7 387.2 317.6 386ZM331.7 395C333.3 394.6 339 395 341.9 396C346.7 397.6 354.3 402.6 360 404.5C369 407.6 389.4 412.6 396 414.6C397.2 415 400.1 416.5 399.6 417C399.1 417.5 395 417.8 393 417.5C387.4 416.9 373 414.6 366 413C361.4 412 355.3 410.3 351 408.4C345.3 405.9 335.2 400.6 332 398.3C331.2 397.8 330.7 395.2 331.7 395Z" fill="#F4E0B8" fill-rule="evenodd"></path></g>
<g stroke="#C38B34" stroke-width="1.5"><path d="M288 316C289.1 316.2 294.7 315.8 294.7 317C294.8 318.2 290.2 321.2 288.3 323C286.7 324.5 284.7 327.2 283 328.1C281.7 328.7 279.4 327.9 278 328.4C276.6 328.8 274.6 329.8 273.7 331C272 333.3 268.9 339.5 268 342C267.5 343.1 266.7 345.4 267.8 346C269.1 346.7 273.7 345.5 276 346.3C278.1 347 280 349.8 282 350.9C284.7 352.3 289.5 353.2 292.3 355C294.8 356.6 296.9 360.1 299.2 362C301.7 364 306.3 366.3 308.1 368C309 368.9 309.8 370.7 309.9 372C310.2 373.8 310.2 377 309.4 379C308 382.7 302.7 391.5 301.4 394"></path><path d="M230.3 389C229.5 389 224.3 387.4 225 388.8C226.4 391.6 234.2 401.1 239 405.6C244.8 411.1 254.7 418.5 260 421.7C263 423.6 268.3 424 271 425.3C272.9 426.3 276.3 427.9 276.2 430C275.9 437.3 270.1 460.2 269.1 469C268.6 473.2 270.4 478.8 270 483C269.5 488.7 266.1 496.9 265.8 503C265.6 508.7 268.4 517 268.4 522C268.4 525.4 267.1 529.8 266 533C264.7 536.7 262.4 542.3 260.4 545C259.2 546.7 254.5 547.5 254.5 549C254.4 550.5 258 553.2 260 554.3C261.9 555.2 265 554.5 267 555.4C269.1 556.2 271 558.8 273 559.7C275.8 561.1 282.2 562.7 284 563.3"></path><path d="M337 395C340.8 396.6 353 402 360 404.5C366.5 406.9 378.3 410.3 382 411.5"></path></g>
<g stroke="#C38B34" stroke-width="1" stroke-opacity="0.7"><path d="M323.4 301C324 301.8 327.9 304.4 327.1 306C325 309.8 314.5 320.4 311 323.9C309.8 325.1 307.1 325.3 306 326.6C304.5 328.3 302.1 331.5 301.9 334C301.6 336.5 302.7 340.1 304.4 342C307.1 345 316.4 347.2 318.2 352C320.6 358.2 318.1 373.8 318.6 379C318.7 380.4 320.6 382.4 321 383.1"></path><path d="M335 392.5C336.6 392.6 342 392.3 344.9 393C352.2 394.9 372.5 401.5 379 403.9C380.7 404.5 382.3 406.6 384 407.1C390.3 409 411.5 413.8 417 415.2"></path><path d="M279.4 424C279.7 425.2 281.1 428.9 280.8 431C280.3 435.5 277.1 444.9 276 451C275.1 456.9 273.8 465 274.2 471C274.5 476.2 278 482.8 278.2 488C278.5 493.7 275.3 501.3 275.9 507C276.5 512.1 281.8 519.2 282 523C282.1 525.5 277.7 527.5 277.2 530C276.6 533 278.3 537.7 278.2 541C278 543.8 277.2 548 276.3 550C275.7 551.3 272.8 551.7 272.7 553C272.6 554.3 274 557.2 275.5 558C278.7 559.7 289.2 562.4 292 563.2"></path></g>
<g fill="#C38B34" fill-opacity="0.7"><circle cx="335.0" cy="301.0" r="0.9"></circle><circle cx="326.0" cy="303.0" r="0.9"></circle><circle cx="318.8" cy="305.0" r="0.9"></circle><circle cx="357.3" cy="304.9" r="1.1"></circle><circle cx="309.8" cy="309.8" r="1.5"></circle><circle cx="291.3" cy="318.0" r="1.3"></circle><circle cx="281.2" cy="324.0" r="0.9"></circle><circle cx="388.3" cy="325.0" r="1.7"></circle><circle cx="268.3" cy="337.7" r="0.9"></circle><circle cx="308.0" cy="369.0" r="0.9"></circle><circle cx="308.8" cy="381.3" r="1.0"></circle><circle cx="279.8" cy="434.8" r="0.9"></circle><circle cx="270.7" cy="446.3" r="0.9"></circle><circle cx="273.3" cy="446.3" r="0.9"></circle><circle cx="265.8" cy="482.2" r="1.0"></circle><circle cx="279.8" cy="524.8" r="1.0"></circle></g>
<path d="M323.8 295C329.1 294.4 337.2 293.9 343 294.3C349.7 294.8 358.5 296.5 365 297.9C370.8 299.2 378.5 301.3 384 303.3C388.4 304.9 394 307.7 398 310.1C403.2 313.2 410.2 318.2 415 322.1C418.9 325.2 423.7 329.9 427 333.6C431.9 339.3 440.1 348.7 444.6 356C448.6 362.4 452.7 371.8 454.9 379C456.9 385.7 458.3 397.7 458.5 402C458.6 403.1 457.2 404.3 456.4 405C454.5 406.7 449.6 410.8 447 412.3C445.4 413.3 442.7 413.4 441 414.3C439 415.4 437.1 418 435 418.7C432 419.7 426.6 420.3 423 420.5C416.7 420.8 402 420.8 397 420.5C395.7 420.4 394.3 419 393 418.7C387.7 417.6 372.2 415.4 365 413.7C360.4 412.6 354.3 410.6 350 408.7C343.5 405.8 331.3 398.4 326 396.5C323.7 395.7 320.4 397.5 318 397.5C315.9 397.5 313.1 396.5 311 396.7C307.7 397 301.5 399.5 298 399.1C295.3 398.9 292.6 395.4 290 394.7C287.1 393.9 282.8 394.9 280 394.1C277.7 393.5 275.3 390.9 273 390.1C271 389.4 268 390 266 389.5C263.5 388.8 258 383.9 257.7 386C257.5 388.1 261.7 397.6 264.5 402C267.6 406.8 273.9 413.4 277 416.3C278.5 417.7 281 419.2 283 419.7C286 420.5 292 420 295 420.8C297.1 421.4 299.5 423.3 300.9 425C302.1 426.5 304.2 429.4 303.1 431C301.5 433.4 293.3 436.5 291 439.1C289.4 441 288.9 444.6 289.3 447C290.2 452 294.3 464.3 296.1 469C296.9 471 299.1 473 299.9 475C302.1 480.5 307.6 496.2 309.5 502C310.3 504.3 311.4 507.5 311.5 510C311.6 512.7 309.8 516.3 309.9 519C310 521.2 312 523.8 312.3 526C312.6 527.8 312.1 530.2 311.9 532C311.1 538 309.5 555.9 307.3 562C306.2 565.1 302 567.8 299 568.9C295.6 570.1 290.6 570.1 287 569.5C281 568.5 269.8 565.8 263 562.9C257.4 560.5 250.8 555.6 246 551.9C240.3 547.5 233 541.2 228.1 536C222.5 530.1 215.3 521 211.1 515C208.2 510.8 204.9 504.7 202.9 500C199.9 493.2 195.3 481 193.3 474C192 469.3 190.8 462.9 190.8 458C190.9 453.7 193.1 447.2 193.5 444C193.7 442.5 192.9 440.5 193.3 439C194.5 434.2 197.7 422 200.5 415C203.7 406.9 210 393.9 213.1 389C214.2 387.2 217.6 386.9 219 385.4C221.6 382.6 226.5 374.3 229 372.1C230.1 371.1 232.6 372.6 234 372.1C236.2 371.2 240.9 368.7 242.1 367C243 365.8 241 363.5 241.3 362C241.7 359.8 243.2 356.2 244.5 354C247.7 348.3 255.2 334.5 260.7 328C265 323.1 272.7 318.7 278 315.1C282.3 312.2 289.7 307.7 293 306.1C294.4 305.4 296.6 306 298 305.3C299.8 304.4 302 301.8 304 300.7C306 299.6 308.8 298.5 311 297.9C314.3 297 319.9 295.4 323.8 295Z" stroke="#C38B34" stroke-width="2"></path></g>

<g id="crumbs"><g fill="#FBF1DD" stroke="#C38B34" stroke-width="1.5"><path d="M291.9 248C293.3 247.5 297 248.8 297.7 250C298.4 251.2 296.9 254.2 296 255.1C295.1 255.9 293.2 255.8 292 255.5C290.9 255.2 288.9 254.2 288.9 253C288.9 251.7 290.4 248.5 291.9 248Z"></path><path d="M159.5 283C160.5 282.5 161.9 282.1 163 282.3C165.2 282.7 170.3 285.4 173 285.5C174.9 285.6 177.3 283.3 179 283.1C180.3 283 182.1 283.5 183 284.4C184.1 285.4 185.7 287.7 185.7 289C185.7 290.2 184.1 291.4 183 291.9C180.9 292.9 176 294.6 173 295.1C170.6 295.5 167.4 295 165 295.2C162.9 295.3 160.1 296.4 158 296.2C156.3 296 153.7 295 152.6 294C151.7 293.1 151.1 291.2 151.5 290C151.9 288.7 153.9 287.1 155.1 286C156.3 285 158.2 283.6 159.5 283Z"></path><path d="M196.8 314C197.5 313.5 199.8 313.3 200.4 314C200.9 314.7 200.7 317.7 200 318.2C199.3 318.7 196.8 317.7 196.2 317C195.7 316.3 196.1 314.5 196.8 314Z"></path></g><g fill="#C38B34"><circle cx="255.3" cy="126.3" r="1.0"></circle><circle cx="462.0" cy="384.5" r="1.0"></circle><circle cx="395.0" cy="429.5" r="1.0"></circle><circle cx="439.0" cy="430.0" r="1.0"></circle><circle cx="323.5" cy="441.0" r="1.0"></circle><circle cx="353.7" cy="443.3" r="1.0"></circle><circle cx="311.5" cy="473.0" r="1.0"></circle></g></g>
</svg>